HIERARCHY
ROOT Hips
{
	OFFSET 0.000000 0.000000 0.000000
	CHANNELS 6 Xposition Yposition Zposition Zrotation Yrotation Xrotation 
	JOINT LHipJoint
	{
		OFFSET 0.000000 0.000000 0.000000
		CHANNELS 3 Zrotation Yrotation Xrotation
		JOINT LeftUpLeg
		{
			OFFSET 1.363060 -1.794630 0.839290
			CHANNELS 3 Zrotation Yrotation Xrotation
			JOINT LeftLeg
			{
				OFFSET 2.448110 -6.726130 0.000000
				CHANNELS 3 Zrotation Yrotation Xrotation
				JOINT LeftFoot
				{
					OFFSET 2.562200 -7.039590 0.000000
					CHANNELS 3 Zrotation Yrotation Xrotation
					JOINT LeftToeBase
					{
						OFFSET 0.157640 -0.433110 2.322550
						CHANNELS 3 Zrotation Yrotation Xrotation
						End Site
						{
							OFFSET 0.000000 0.000000 0.000000
						}
					}
				}
			}
		}
	}
	JOINT RHipJoint
	{
		OFFSET 0.000000 0.000000 0.000000
		CHANNELS 3 Zrotation Yrotation Xrotation
		JOINT RightUpLeg
		{
			OFFSET -1.305520 -1.794630 0.839290
			CHANNELS 3 Zrotation Yrotation Xrotation
			JOINT RightLeg
			{
				OFFSET -2.542530 -6.985550 0.000000
				CHANNELS 3 Zrotation Yrotation Xrotation
				JOINT RightFoot
				{
					OFFSET -2.568260 -7.056230 0.000000
					CHANNELS 3 Zrotation Yrotation Xrotation
					JOINT RightToeBase
					{
						OFFSET -0.164730 -0.452590 2.363150
						CHANNELS 3 Zrotation Yrotation Xrotation
						End Site
						{
							OFFSET 0.000000 0.000000 0.000000
						}
					}
				}
			}
		}
	}
	JOINT LowerBack
	{
		OFFSET 0.000000 0.000000 0.000000
		CHANNELS 3 Zrotation Yrotation Xrotation
		JOINT Spine
		{
			OFFSET 0.028270 2.035590 -0.193380
			CHANNELS 3 Zrotation Yrotation Xrotation
			JOINT Spine1
			{
				OFFSET 0.056720 2.048850 -0.042750
				CHANNELS 3 Zrotation Yrotation Xrotation
				JOINT Neck
				{
					OFFSET 0.000000 0.000000 0.000000
					CHANNELS 3 Zrotation Yrotation Xrotation
					JOINT Neck1
					{
						OFFSET -0.054170 1.746240 0.172020
						CHANNELS 3 Zrotation Yrotation Xrotation
						JOINT Head
						{
							OFFSET 0.104070 1.761360 -0.123970
							CHANNELS 3 Zrotation Yrotation Xrotation
							End Site
							{
								OFFSET 0.000000 0.000000 0.000000
							}
						}
					}
				}
				JOINT LeftShoulder
				{
					OFFSET 0.000000 0.000000 0.000000
					CHANNELS 3 Zrotation Yrotation Xrotation
					JOINT LeftArm
					{
						OFFSET 3.362410 1.200890 -0.311210
						CHANNELS 3 Zrotation Yrotation Xrotation
						JOINT LeftForeArm
						{
							OFFSET 4.983000 -0.000000 -0.000000
							CHANNELS 3 Zrotation Yrotation Xrotation
							JOINT LeftHand
							{
								OFFSET 3.483560 -0.000000 -0.000000
								CHANNELS 3 Zrotation Yrotation Xrotation
								JOINT LeftFingerBase
								{
									OFFSET 0.000000 0.000000 0.000000
									CHANNELS 3 Zrotation Yrotation Xrotation
									JOINT LeftHandIndex1
									{
										OFFSET 0.715260 -0.000000 -0.000000
										CHANNELS 3 Zrotation Yrotation Xrotation
										End Site
										{
											OFFSET 0.000000 0.000000 0.000000
										}
									}
								}
								JOINT LThumb
								{
									OFFSET 0.000000 0.000000 0.000000
									CHANNELS 3 Zrotation Yrotation Xrotation
									End Site
									{
										OFFSET 0.000000 0.000000 0.000000
									}
								}
							}
						}
					}
				}
				JOINT RightShoulder
				{
					OFFSET 0.000000 0.000000 0.000000
					CHANNELS 3 Zrotation Yrotation Xrotation
					JOINT RightArm
					{
						OFFSET -3.136600 1.374050 -0.404650
						CHANNELS 3 Zrotation Yrotation Xrotation
						JOINT RightForeArm
						{
							OFFSET -5.241900 -0.000000 -0.000000
							CHANNELS 3 Zrotation Yrotation Xrotation
							JOINT RightHand
							{
								OFFSET -3.444170 -0.000000 -0.000000
								CHANNELS 3 Zrotation Yrotation Xrotation
								JOINT RightFingerBase
								{
									OFFSET 0.000000 0.000000 0.000000
									CHANNELS 3 Zrotation Yrotation Xrotation
									JOINT RightHandIndex1
									{
										OFFSET -0.622530 -0.000000 -0.000000
										CHANNELS 3 Zrotation Yrotation Xrotation
										End Site
										{
											OFFSET 0.000000 0.000000 0.000000
										}
									}
								}
								JOINT RThumb
								{
									OFFSET 0.000000 0.000000 0.000000
									CHANNELS 3 Zrotation Yrotation Xrotation
									End Site
									{
										OFFSET 0.000000 0.000000 0.000000
									}
								}
							}
						}
					}
				}
			}
		}
	}
}
MOTION
Frames: 7
Frame Time: 0.008333
0.691188 17.781508 -15.823879 -1.207291 -2.719846 5.230055 2.861604 2.752082 1.196770 -18.478474 -8.734275 -11.160056 1.221600 7.487422 23.529251 -0.852795 5.894804 -6.047733 0.025600 -1.033900 -2.842000 -5.050741 -3.410720 0.551138 25.222681 10.257181 -8.729220 -2.045457 -7.107562 22.892833 0.537100 -4.906308 -6.507396 -0.140500 -2.416000 6.656800 1.173197 0.731505 3.871753 1.543109 0.649729 -1.240500 3.309535 0.780397 -3.983256 -9.081799 -3.650526 -10.956353 4.335581 -3.798647 15.196172 3.276700 -2.294100 9.339000 -7.028334 3.522929 -2.271237 -85.206370 5.214437 17.016463 13.446490 -24.228857 -3.497509 -1.080264 -2.188973 4.412648 19.888909 13.719349 5.996500 -7.125000 0.000000 0.000000 -6.593200 46.963000 -0.320700 5.303977 -2.634337 -2.158394 81.589806 -3.907641 17.244892 -17.367764 25.766034 -5.027723 0.715852 -0.391143 3.517873 -11.363380 12.738961 -2.773500 7.125000 0.000000 0.000000 10.485700 -16.773300 7.135000
0.689652 17.783559 -15.824036 -1.166249 -2.664954 5.269700 2.862369 2.751268 1.198991 -18.503298 -8.761470 -11.178625 1.222163 7.489552 23.537229 -0.823045 5.761158 -6.084145 0.013748 -0.751024 -2.063962 -5.048603 -3.411627 0.553108 25.176923 10.229798 -8.771111 -2.041301 -7.098974 22.863120 0.540270 -4.926361 -6.511404 -0.142397 -2.432007 6.701155 1.127334 0.706572 3.875455 1.533642 0.614101 -1.269494 3.309145 0.766261 -4.051813 -8.980283 -3.615406 -10.894422 4.277188 -3.773038 15.195074 3.237636 -2.280970 9.319188 -7.019174 3.522476 -2.277659 -85.178578 5.319892 17.064472 13.482801 -24.284338 -3.502898 -1.084356 -2.230910 4.331636 20.119010 14.229656 6.272123 -7.125000 0.000000 0.000000 -6.502489 47.574776 -0.414546 5.292171 -2.640786 -2.165427 81.635641 -4.088584 17.350861 -17.465508 25.898067 -5.085097 0.715605 -0.377250 3.499956 -11.375154 12.621275 -2.748576 7.125000 0.000000 0.000000 10.481408 -16.904118 7.101613
0.688822 17.786284 -15.825070 -1.166621 -2.553099 5.296549 2.861425 2.751299 1.204103 -18.482382 -8.806264 -11.223800 1.224683 7.496945 23.555931 -0.800772 5.653865 -6.062453 0.007967 -0.572417 -1.572936 -5.048159 -3.414316 0.554236 25.189194 10.145849 -8.795210 -2.037273 -7.088045 22.832252 0.550492 -4.981504 -6.493164 -0.146512 -2.467039 6.798279 1.139475 0.650712 3.919774 1.547266 0.541857 -1.319150 3.336617 0.736154 -4.184997 -8.969294 -3.573842 -10.784700 4.250552 -3.724044 15.209792 3.231726 -2.262757 9.299043 -7.012012 3.525280 -2.289466 -85.190864 5.512009 17.081923 13.530358 -24.357801 -3.516656 -1.103258 -2.253761 4.287237 20.442256 14.482281 6.486038 -7.125000 0.000000 0.000000 -6.244033 47.914963 -0.450459 5.286302 -2.642067 -2.169807 81.632653 -4.214671 17.455656 -17.479978 25.914588 -5.092791 0.719795 -0.372086 3.556043 -11.447902 12.556351 -2.751602 7.125000 0.000000 0.000000 10.430084 -16.970795 7.050149
0.685583 17.787251 -15.826272 -1.170235 -2.466702 5.371602 2.860873 2.746803 1.202831 -18.447101 -8.833105 -11.349687 1.225441 7.505187 23.566827 -0.793933 5.614749 -6.003793 0.011412 -0.688835 -1.893121 -5.051090 -3.413891 0.558935 25.210631 10.189018 -8.845833 -2.031201 -7.077245 22.793147 0.569522 -5.098709 -6.513683 -0.148227 -2.481072 6.837161 1.112658 0.613335 3.867094 1.571609 0.487057 -1.337210 3.411208 0.712387 -4.190387 -9.019433 -3.574972 -10.807257 4.236540 -3.711367 15.266670 3.235485 -2.263711 9.325923 -7.006829 3.527211 -2.295089 -85.243882 5.581009 17.061766 13.563169 -24.407270 -3.525762 -1.122632 -2.264781 4.322844 20.701207 14.608894 6.630123 -7.125000 0.000000 0.000000 -6.014660 48.102885 -0.461946 5.288175 -2.642477 -2.171619 81.603813 -4.199114 17.463198 -17.479864 25.914660 -5.094863 0.710775 -0.361661 3.611297 -11.354921 12.413236 -2.696021 7.125000 0.000000 0.000000 10.504023 -17.130522 7.064515
0.682709 17.786616 -15.827196 -1.209123 -2.420023 5.374418 2.860497 2.746162 1.202527 -18.382426 -8.863104 -11.364834 1.226637 7.508796 23.573794 -0.791401 5.595502 -5.956950 0.011872 -0.702530 -1.930641 -5.053947 -3.413390 0.558983 25.279066 10.222687 -8.818547 -2.026622 -7.066447 22.761287 0.589556 -5.205013 -6.464246 -0.144475 -2.449182 6.748653 1.140046 0.592181 3.904470 1.585905 0.461639 -1.331780 3.429389 0.699906 -4.194664 -9.006892 -3.578098 -10.842984 4.209894 -3.713578 15.295836 3.221308 -2.266507 9.344197 -7.002684 3.523948 -2.297061 -85.250476 5.598183 17.104519 13.587880 -24.443283 -3.532142 -1.124731 -2.284318 4.340469 20.799695 14.870087 6.769347 -7.125000 0.000000 0.000000 -5.988785 48.413993 -0.505945 5.290425 -2.641968 -2.171048 81.594335 -4.156698 17.474055 -17.480031 25.915718 -5.096277 0.704599 -0.370493 3.588922 -11.262731 12.517774 -2.697162 7.125000 0.000000 0.000000 10.568696 -17.022061 7.134995
0.681646 17.787833 -15.828108 -1.233143 -2.472195 5.315270 2.859888 2.750397 1.204252 -18.366468 -8.799389 -11.312189 1.228768 7.508320 23.578700 -0.793657 5.597675 -5.913079 0.011700 -0.698451 -1.919370 -5.054378 -3.413160 0.555549 25.316318 10.208006 -8.753953 -2.025873 -7.061330 22.753217 0.585493 -5.169170 -6.417741 -0.138710 -2.400261 6.613162 1.172089 0.620625 4.048454 1.582124 0.508701 -1.326296 3.402510 0.722448 -4.265434 -9.026937 -3.594976 -10.846056 4.245370 -3.735754 15.315465 3.236647 -2.275482 9.360056 -7.001012 3.522026 -2.299501 -85.249045 5.608480 17.149572 13.612785 -24.475409 -3.538157 -1.130476 -2.299151 4.370823 20.918617 15.074543 6.894467 -7.125000 0.000000 0.000000 -5.925316 48.664814 -0.537296 5.284106 -2.636316 -2.171289 81.614710 -4.190973 17.471141 -17.521041 25.969281 -5.116756 0.713174 -0.389538 3.559315 -11.351784 12.774875 -2.777275 7.125000 0.000000 0.000000 10.494692 -16.740131 7.149035
0.680843 17.785238 -15.825000 -1.283568 -2.609409 5.223527 2.859470 2.756011 1.204157 -18.335277 -8.682560 -11.213004 1.230123 7.504209 23.577404 -0.813216 5.694415 -5.957370 0.015114 -0.792379 -2.177735 -5.054411 -3.412951 0.550359 25.373843 10.204559 -8.654319 -2.028898 -7.064806 22.773742 0.569828 -5.076019 -6.426075 -0.135054 -2.368725 6.525781 1.242847 0.679658 4.140462 1.568475 0.596537 -1.293596 3.328632 0.761017 -4.245279 -8.985789 -3.624915 -10.971287 4.282332 -3.783837 15.388004 3.236818 -2.290464 9.420808 -7.002324 3.517089 -2.296411 -85.203116 5.535741 17.184264 13.596448 -24.446853 -3.527685 -1.124648 -2.306264 4.391454 20.867493 15.187281 6.919339 -7.125000 0.000000 0.000000 -6.011385 48.781774 -0.562627 5.283436 -2.634354 -2.171254 81.684649 -4.159526 17.423011 -17.564051 26.022712 -5.138992 0.717626 -0.390949 3.639185 -11.434464 12.796380 -2.802380 7.125000 0.000000 0.000000 10.434085 -16.713322 7.112619
